<svg xmlns="http://www.w3.org/2000/svg" viewBox="0 0 512 512">
  <defs>
    <linearGradient id="jellyfin-gradient" x1="0%" y1="0%" x2="100%" y2="100%">
      <stop offset="0%" style="stop-color:#AA5CC3"/>
      <stop offset="100%" style="stop-color:#00A4DC"/>
    </linearGradient>
  </defs>
  <path fill="url(#jellyfin-gradient)" d="M256 0C114.615 0 0 114.615 0 256s114.615 256 256 256 256-114.615 256-256S397.385 0 256 0zm0 472c-119.103 0-216-96.897-216-216S136.897 40 256 40s216 96.897 216 216-96.897 216-216 216zm108.5-216L256 147.5 147.5 256 256 364.5 364.5 256zm-108.5 61.5L202.5 256 256 202.5 309.5 256 256 309.5z"/>
</svg>
